<svg width="71" height="71" viewBox="0 0 71 71" fill="none" xmlns="http://www.w3.org/2000/svg">
<path fill-rule="evenodd" clip-rule="evenodd" d="M23.3599 23.391C31.8622 14.8789 35.7983 5.01706 32.1514 1.3653C28.5029 -2.2912 18.6494 1.65009 10.1494 10.1638C1.64858 18.6766 -2.28747 28.5409 1.36259 32.1927C5.0095 35.8452 14.8607 31.9039 23.3599 23.391Z" fill="#A6E3E9"/>
<path fill-rule="evenodd" clip-rule="evenodd" d="M60.7523 60.8356C69.2539 52.3235 73.1899 42.46 69.5422 38.8083C65.8938 35.1541 56.0473 39.0946 47.5442 47.6091C39.0426 56.122 35.1073 65.9839 38.7535 69.6348C42.4027 73.2898 52.2539 69.3516 60.7523 60.8356Z" fill="#A6E3E9"/>
<path fill-rule="evenodd" clip-rule="evenodd" d="M23.3599 47.6099C14.8607 39.0954 5.0095 35.1541 1.36259 38.8083C-2.28747 42.46 1.64858 52.3251 10.1494 60.8356C18.6509 69.3516 28.5029 73.2898 32.1514 69.6356C35.8014 65.9815 31.8622 56.1228 23.3599 47.6099Z" fill="#A6E3E9"/>
<path fill-rule="evenodd" clip-rule="evenodd" d="M60.7523 10.1645C52.2539 1.65087 42.4027 -2.2912 38.7526 1.36529C35.1073 5.01705 39.0418 14.8789 47.5434 23.3902C56.0473 31.9039 65.8969 35.8452 69.5422 32.1926C73.1915 28.5393 69.257 18.6766 60.7523 10.1645Z" fill="#A6E3E9"/>
<path d="M35.4533 7.57306C35.4533 22.9974 22.9637 35.5005 7.56299 35.5005C22.9668 35.5005 35.4533 48.0035 35.4533 63.4255C35.4533 48.0035 47.939 35.5005 63.3405 35.5005C47.9398 35.5005 35.4533 22.9974 35.4533 7.57306Z" fill="#A6E3E9"/>
</svg>
